# Blender v2.82 (sub 7) OBJ File: 'mokuzai.blend'
# www.blender.org
mtllib mokuzai.mtl
o Cube.005
v 0.971773 0.581327 -0.381327
v 0.971773 0.218673 -0.381327
v 0.971773 0.581327 -0.018673
v 0.971773 0.218673 -0.018673
v -0.971773 0.581327 -0.381327
v -0.971773 0.218673 -0.381327
v -0.971773 0.581327 -0.018673
v -0.971773 0.218673 -0.018673
v 0.971773 0.581327 0.018673
v 0.971773 0.218673 0.018673
v 0.971773 0.581327 0.381327
v 0.971773 0.218673 0.381327
v -0.971773 0.581327 0.018673
v -0.971773 0.218673 0.018673
v -0.971773 0.581327 0.381327
v -0.971773 0.218673 0.381327
v 0.971773 0.181327 -0.581327
v 0.971773 -0.181327 -0.581327
v 0.971773 0.181327 -0.218673
v 0.971773 -0.181327 -0.218673
v -0.971773 0.181327 -0.581327
v -0.971773 -0.181327 -0.581327
v -0.971773 0.181327 -0.218673
v -0.971773 -0.181327 -0.218673
v 0.971773 0.181327 0.218673
v 0.971773 -0.181327 0.218673
v 0.971773 0.181327 0.581327
v 0.971773 -0.181327 0.581327
v -0.971773 0.181327 0.218673
v -0.971773 -0.181327 0.218673
v -0.971773 0.181327 0.581327
v -0.971773 -0.181327 0.581327
v 0.971773 0.181327 -0.181327
v 0.971773 -0.181327 -0.181327
v 0.971773 0.181327 0.181327
v 0.971773 -0.181327 0.181327
v -0.971773 0.181327 -0.181327
v -0.971773 -0.181327 -0.181327
v -0.971773 0.181327 0.181327
v -0.971773 -0.181327 0.181327
vt 0.165033 0.998366
vt 0.001634 0.834967
vt 0.165033 0.834967
vt 0.168301 0.501634
vt 0.331699 0.665033
vt 0.168301 0.665033
vt 0.501634 0.165033
vt 0.665033 0.001634
vt 0.665033 0.165033
vt 0.168301 0.998366
vt 0.331699 0.834967
vt 0.331699 0.998366
vt 0.001634 0.331699
vt 0.165033 0.168301
vt 0.165033 0.331699
vt 0.168301 0.165033
vt 0.331699 0.001634
vt 0.331699 0.165033
vt 0.668301 0.665033
vt 0.831699 0.501634
vt 0.831699 0.665033
vt 0.334967 0.168301
vt 0.498366 0.331699
vt 0.334967 0.331699
vt 0.668301 0.498366
vt 0.831699 0.334967
vt 0.831699 0.498366
vt 0.501634 0.668301
vt 0.665033 0.831699
vt 0.501634 0.831699
vt 0.001634 0.165033
vt 0.165033 0.001634
vt 0.165033 0.165033
vt 0.001634 0.668301
vt 0.165033 0.831699
vt 0.001634 0.831699
vt 0.834967 0.001634
vt 0.998366 0.165033
vt 0.834967 0.165033
vt 0.334967 0.334967
vt 0.498366 0.498366
vt 0.334967 0.498366
vt 0.168301 0.498366
vt 0.331699 0.334967
vt 0.331699 0.498366
vt 0.334967 0.501634
vt 0.498366 0.665033
vt 0.334967 0.665033
vt 0.168301 0.331699
vt 0.331699 0.168301
vt 0.331699 0.331699
vt 0.668301 0.668301
vt 0.831699 0.831699
vt 0.668301 0.831699
vt 0.834967 0.331699
vt 0.998366 0.168301
vt 0.998366 0.331699
vt 0.334967 0.001634
vt 0.498366 0.165033
vt 0.334967 0.165033
vt 0.501634 0.498366
vt 0.665033 0.334967
vt 0.665033 0.498366
vt 0.498366 0.668301
vt 0.334967 0.831699
vt 0.334967 0.668301
vt 0.665033 0.501634
vt 0.501634 0.665033
vt 0.501634 0.501634
vt 0.168301 0.668301
vt 0.331699 0.831699
vt 0.168301 0.831699
vt 0.831699 0.331699
vt 0.668301 0.168301
vt 0.831699 0.168301
vt 0.001634 0.501634
vt 0.165033 0.665033
vt 0.001634 0.665033
vt 0.001634 0.498366
vt 0.165033 0.334967
vt 0.165033 0.498366
vt 0.498366 0.998366
vt 0.334967 0.834967
vt 0.498366 0.834967
vt 0.668301 0.165033
vt 0.831699 0.001634
vt 0.831699 0.165033
vt 0.665033 0.331699
vt 0.501634 0.168301
vt 0.665033 0.168301
vt 0.001634 0.998366
vt 0.331699 0.501634
vt 0.501634 0.001634
vt 0.168301 0.834967
vt 0.001634 0.168301
vt 0.168301 0.001634
vt 0.668301 0.501634
vt 0.498366 0.168301
vt 0.668301 0.334967
vt 0.665033 0.668301
vt 0.001634 0.001634
vt 0.165033 0.668301
vt 0.998366 0.001634
vt 0.498366 0.334967
vt 0.168301 0.334967
vt 0.498366 0.501634
vt 0.168301 0.168301
vt 0.831699 0.668301
vt 0.834967 0.168301
vt 0.498366 0.001634
vt 0.501634 0.334967
vt 0.498366 0.831699
vt 0.665033 0.665033
vt 0.331699 0.668301
vt 0.668301 0.331699
vt 0.165033 0.501634
vt 0.001634 0.334967
vt 0.334967 0.998366
vt 0.668301 0.001634
vt 0.501634 0.331699
vn 0.0000 1.0000 0.0000
vn 0.0000 0.0000 1.0000
vn -1.0000 0.0000 0.0000
vn 0.0000 -1.0000 0.0000
vn 1.0000 0.0000 0.0000
vn 0.0000 0.0000 -1.0000
usemtl Material
s off
f 5/1/1 3/2/1 1/3/1
f 3/4/2 8/5/2 4/6/2
f 7/7/3 6/8/3 8/9/3
f 2/10/4 8/11/4 6/12/4
f 1/13/5 4/14/5 2/15/5
f 5/16/6 2/17/6 6/18/6
f 13/19/1 11/20/1 9/21/1
f 11/22/2 16/23/2 12/24/2
f 15/25/3 14/26/3 16/27/3
f 10/28/4 16/29/4 14/30/4
f 9/31/5 12/32/5 10/33/5
f 13/34/6 10/35/6 14/36/6
f 21/37/1 19/38/1 17/39/1
f 19/40/2 24/41/2 20/42/2
f 23/43/3 22/44/3 24/45/3
f 18/46/4 24/47/4 22/48/4
f 17/49/5 20/50/5 18/51/5
f 21/52/6 18/53/6 22/54/6
f 29/55/1 27/56/1 25/57/1
f 27/58/2 32/59/2 28/60/2
f 31/61/3 30/62/3 32/63/3
f 26/64/4 32/65/4 30/66/4
f 25/67/5 28/68/5 26/69/5
f 29/70/6 26/71/6 30/72/6
f 37/73/1 35/74/1 33/75/1
f 35/76/2 40/77/2 36/78/2
f 39/79/3 38/80/3 40/81/3
f 34/82/4 40/83/4 38/84/4
f 33/85/5 36/86/5 34/87/5
f 37/88/6 34/89/6 38/90/6
f 5/1/1 7/91/1 3/2/1
f 3/4/2 7/92/2 8/5/2
f 7/7/3 5/93/3 6/8/3
f 2/10/4 4/94/4 8/11/4
f 1/13/5 3/95/5 4/14/5
f 5/16/6 1/96/6 2/17/6
f 13/19/1 15/97/1 11/20/1
f 11/22/2 15/98/2 16/23/2
f 15/25/3 13/99/3 14/26/3
f 10/28/4 12/100/4 16/29/4
f 9/31/5 11/101/5 12/32/5
f 13/34/6 9/102/6 10/35/6
f 21/37/1 23/103/1 19/38/1
f 19/40/2 23/104/2 24/41/2
f 23/43/3 21/105/3 22/44/3
f 18/46/4 20/106/4 24/47/4
f 17/49/5 19/107/5 20/50/5
f 21/52/6 17/108/6 18/53/6
f 29/55/1 31/109/1 27/56/1
f 27/58/2 31/110/2 32/59/2
f 31/61/3 29/111/3 30/62/3
f 26/64/4 28/112/4 32/65/4
f 25/67/5 27/113/5 28/68/5
f 29/70/6 25/114/6 26/71/6
f 37/73/1 39/115/1 35/74/1
f 35/76/2 39/116/2 40/77/2
f 39/79/3 37/117/3 38/80/3
f 34/82/4 36/118/4 40/83/4
f 33/85/5 35/119/5 36/86/5
f 37/88/6 33/120/6 34/89/6
